<svg xmlns="http://www.w3.org/2000/svg" xmlns:xlink="http://www.w3.org/1999/xlink" viewBox="0 0 758.81 963"><defs><style>.cls-1{isolation:isolate;}.cls-2{fill:#fb9;}.cls-3{fill:#6ca2f7;}.cls-4{fill:#373449;}.cls-5{fill:#373463;}.cls-6{fill:#59baf7;}.cls-7{fill:#1c81b7;}.cls-8{fill:#f95954;}.cls-9{fill:#fff;stroke:#373463;stroke-miterlimit:10;stroke-width:0.5px;}.cls-10{fill:url(#linear-gradient);}.cls-11{fill:url(#radial-gradient);}.cls-12{fill:url(#radial-gradient-2);}.cls-13{fill:url(#radial-gradient-3);}.cls-14{fill:url(#radial-gradient-4);}.cls-15{fill:url(#radial-gradient-5);}.cls-16{fill:url(#radial-gradient-6);}.cls-17{fill:url(#radial-gradient-7);}.cls-18{fill:url(#linear-gradient-2);}.cls-19{fill:url(#radial-gradient-8);}.cls-20,.cls-29{opacity:0.7;mix-blend-mode:screen;}.cls-20{fill:url(#linear-gradient-3);}.cls-21{fill:url(#radial-gradient-9);}.cls-22{fill:url(#radial-gradient-10);}.cls-23{fill:url(#radial-gradient-11);}.cls-24{fill:url(#radial-gradient-12);}.cls-25{fill:url(#radial-gradient-13);}.cls-26{fill:url(#radial-gradient-14);}.cls-27{fill:url(#linear-gradient-4);}.cls-28{fill:url(#radial-gradient-15);}.cls-29{fill:url(#linear-gradient-5);}</style><linearGradient id="linear-gradient" x1="367.36" y1="172.17" x2="367.36" y2="66.41" gradientUnits="userSpaceOnUse"><stop offset="0" stop-color="#3e393a"/><stop offset="1" stop-color="#231f20"/></linearGradient><radialGradient id="radial-gradient" cx="-321.98" cy="344.73" r="156.21" gradientTransform="translate(1566.61 -1324.84) scale(3.7)" gradientUnits="userSpaceOnUse"><stop offset="0" stop-color="#10d9f0"/><stop offset="0.33" stop-color="#0592f6"/><stop offset="0.48" stop-color="#0076f8"/><stop offset="0.54" stop-color="#0071ed"/><stop offset="0.64" stop-color="#0062d0"/><stop offset="0.77" stop-color="#004ba0"/><stop offset="0.93" stop-color="#002a5e"/><stop offset="1" stop-color="#001a3d"/></radialGradient><radialGradient id="radial-gradient-2" cx="-422.91" cy="501.35" r="28.11" xlink:href="#radial-gradient"/><radialGradient id="radial-gradient-3" cx="-371.61" cy="530.87" r="32.08" xlink:href="#radial-gradient"/><radialGradient id="radial-gradient-4" cx="-385.43" cy="530.04" r="27.25" xlink:href="#radial-gradient"/><radialGradient id="radial-gradient-5" cx="-382.08" cy="516.01" r="47.23" xlink:href="#radial-gradient"/><radialGradient id="radial-gradient-6" cx="-334.96" cy="516.84" r="79.59" xlink:href="#radial-gradient"/><radialGradient id="radial-gradient-7" cx="-336.01" cy="485.44" r="67.92" xlink:href="#radial-gradient"/><linearGradient id="linear-gradient-2" x1="265.26" y1="607.99" x2="218.27" y2="620.11" xlink:href="#linear-gradient"/><radialGradient id="radial-gradient-8" cx="-401.55" cy="444.61" r="43.72" xlink:href="#radial-gradient"/><linearGradient id="linear-gradient-3" x1="165.43" y1="-210.69" x2="266.76" y2="976.37" gradientUnits="userSpaceOnUse"><stop offset="0" stop-color="#fff"/><stop offset="0.31" stop-color="#969696"/><stop offset="0.57" stop-color="#454545"/><stop offset="0.75" stop-color="#131313"/><stop offset="0.84"/></linearGradient><radialGradient id="radial-gradient-9" cx="-989.67" cy="501.35" r="28.11" gradientTransform="matrix(-3.7, 0, 0, 3.7, -2906.88, -1324.84)" xlink:href="#radial-gradient"/><radialGradient id="radial-gradient-10" cx="-938.37" cy="530.87" r="32.08" gradientTransform="matrix(-3.7, 0, 0, 3.7, -2906.88, -1324.84)" xlink:href="#radial-gradient"/><radialGradient id="radial-gradient-11" cx="-952.18" cy="530.04" r="27.25" gradientTransform="matrix(-3.7, 0, 0, 3.7, -2906.88, -1324.84)" xlink:href="#radial-gradient"/><radialGradient id="radial-gradient-12" cx="-948.83" cy="516.01" r="47.23" gradientTransform="matrix(-3.7, 0, 0, 3.7, -2906.88, -1324.84)" xlink:href="#radial-gradient"/><radialGradient id="radial-gradient-13" cx="-901.72" cy="516.84" r="79.59" gradientTransform="matrix(-3.7, 0, 0, 3.7, -2906.88, -1324.84)" xlink:href="#radial-gradient"/><radialGradient id="radial-gradient-14" cx="-902.77" cy="485.44" r="67.92" gradientTransform="matrix(-3.7, 0, 0, 3.7, -2906.88, -1324.84)" xlink:href="#radial-gradient"/><linearGradient id="linear-gradient-4" x1="-1701.48" y1="607.99" x2="-1748.47" y2="620.11" gradientTransform="matrix(-1, 0, 0, 1, -1207.93, 0)" xlink:href="#linear-gradient"/><radialGradient id="radial-gradient-15" cx="-968.31" cy="444.61" r="43.72" gradientTransform="matrix(-3.7, 0, 0, 3.7, -2906.88, -1324.84)" xlink:href="#radial-gradient"/><linearGradient id="linear-gradient-5" x1="-1801.31" y1="-210.69" x2="-1699.98" y2="976.37" gradientTransform="matrix(-1, 0, 0, 1, -1207.93, 0)" xlink:href="#linear-gradient-3"/></defs><title>logo</title><g class="cls-1"><g id="Layer_2" data-name="Layer 2"><g id="Layer_1-2" data-name="Layer 1"><path class="cls-2" d="M518.16,518.15s9,19.57,7.34,26.91S510,563.82,501,566.27s-18-11.42-22-22-13.86-30.17-5.7-37.51S511.64,504.28,518.16,518.15Z"/><path class="cls-3" d="M525.5,282.44s0,39.15,4.08,75.85,13,65.25,8.16,87.27-13.87,70.14-19.58,72.59S510.82,510,497.77,510a50.16,50.16,0,0,0-23.65,6.52s0-39.14,1.63-77.48S464.33,355.84,479,333.82s25.29-35.07,30.18-42.41S525.5,282.44,525.5,282.44Z"/><path class="cls-4" d="M466,679.63s-25.28,5.71-28.54,5.71S443.13,656,443.13,656s11.42.82,14.68,5.71S466,679.63,466,679.63Z"/><path class="cls-2" d="M373.8,639.67s.82,68.51,1.63,91.35,3.27,108.47,1.63,127.23-6.52,43.23-2.44,55.46,22,2.45,35.07-13.86,32.62-97.88,32.62-115-3.26-68.51,0-88.09,9.79-47.3,9.79-49.75-21.21-22-46.49-22S373.8,639.67,373.8,639.67Z"/><path class="cls-2" d="M296.32,665s3.26,40,9,55.46S342,753,354.23,739.17s17.94-50.56,16.31-53S296.32,665,296.32,665Z"/><path class="cls-5" d="M290.61,559.74s1.63,41.6,0,68.51-1.63,44-1.63,44,22,14.68,43.23,18a77,77,0,0,0,38.33-4.08l.81-17.94s17.13-14.68,38.34-12.24S466,679.63,466,679.63s3.27-54.64,6.53-80.74S467.6,541,467.6,541Z"/><path class="cls-6" d="M351,244.92s-75,13.05-84,20.39-71,135.39-72.59,155,25.28,29.36,38.33,24.47,54.65-76.67,54.65-76.67-12.24,190.86-4.08,199.83,104.4,15.49,132.94,15.49,53-8.15,56.28-12.23,2.45-72.59,5.71-97.06,7.34-121.52,9.79-128,26.1-29.36,34.25-44.85,4.08-30.18-9-35.89-55.46-18.76-70.14-17.94S373.8,240,351,244.92Z"/><path class="cls-7" d="M324.05,190.27s9-11.41,43.23-17.94,56.27-6.52,74.22.82,35.07,8.15,33.44,16.31-5.71,35.88-17.13,48.12-32.63,22-57.09,19.57-47.31-12.23-58.73-22S324.05,190.27,324.05,190.27Z"/><path class="cls-2" d="M401,118.05c-12.42,2.94-24.19,11.66-30.19,22.22-12.87,22.66-5.31,51.48-.3,75.29,3.26,15.49,22,29.36,31.81,31.81s34.25-5.71,39.15-14.68,6.52-32.62,6.52-53c0-17.92-3.59-40.4-16.7-53.8C422.92,117.29,411.73,115.52,401,118.05Z"/><path class="cls-8" d="M401,118.05c-12.42,2.94-24.19,11.66-30.19,22.22-9.35,16.45-7.89,36.14-4.49,54.81,7.24-9.17,22.25-25,41.71-28.46,21.23-3.75,32.41,11.63,39.79,23.8.1-3.62.17-7.23.17-10.74,0-17.92-3.59-40.4-16.7-53.8C422.92,117.29,411.73,115.52,401,118.05Z"/><path class="cls-3" d="M324.05,190.27c1.58-4.48,14.68,15.5,35.07,28.55s32.62,20.39,52.2,22.84,37.52-17.13,45.67-28.55,13.87-29.36,17.95-23.65-3.27,53-6.53,63.62S426.82,272.65,413,272.65s-40-4.08-64.43-14.68S314.26,218,324.05,190.27Z"/><path class="cls-2" d="M355.86,409.67s15.49-.82,18.76,0,7.34,4.89,3.26,8.16-11.42,4.89-15.5,5.71S355.86,409.67,355.86,409.67Z"/><path class="cls-2" d="M307.74,421.9s21.2-14.68,24.47-18.75,9.78-1.64,17.94,1.63,17.94,10.6,17.13,15.49-4.08,23.66-12.24,26.1-20.39-2.44-20.39-2.44a25,25,0,0,1-11.42,8.15c-7.34,2.45-17.12-4.89-19.57-5.71S307.74,421.9,307.74,421.9Z"/><path class="cls-6" d="M227,396.62s28.55,9.79,48.12,15.5,39.15,6.52,36.71,11.42S292.24,470,292.24,470s-67.69-4.07-89.71-9-28.55-25.28-22-38.33,26.92-33.44,26.92-33.44"/><line class="cls-9" x1="403.16" y1="271.83" x2="395.82" y2="580.95"/><line class="cls-9" x1="371.35" y1="668.22" x2="377.06" y2="596.44"/><path class="cls-8" d="M412.13,885.17s-13-14.69-21.2-14.69S366.46,891.69,364,908.82s2.45,21.2,0,27.73-7.34,7.34-7.34,14.68,12.24,14.68,21.21,10.6,23.65-17.94,33.44-41.59S412.13,885.17,412.13,885.17Z"/><path class="cls-10" d="M62.84,201.12s39.29,18.61,92-4.14,87.89-106.5,210.94-106.5,119.94,49.63,207.83,74.45,98.24,5.17,98.24,5.17S601.57,14,373.05,14,62.84,201.12,62.84,201.12Z"/><path class="cls-11" d="M729,419a11.9,11.9,0,0,1-2-.17,12.4,12.4,0,0,1-10.2-14.27A319.48,319.48,0,0,0,721,352.61C721,171.86,567.93,24.82,379.77,24.82S38.53,171.86,38.53,352.61a318.52,318.52,0,0,0,3.07,44.13A12.4,12.4,0,1,1,17,400.18a343.06,343.06,0,0,1-3.31-47.57C13.72,158.18,177.93,0,379.77,0S745.83,158.18,745.83,352.61a342.36,342.36,0,0,1-4.61,56A12.41,12.41,0,0,1,729,419Z"/><path class="cls-12" d="M32.06,435.65s9,137.06,60.26,211.79l-8.21-48.3s-32.36-57.34-40-166.95Z"/><path class="cls-13" d="M102.55,665.93c14.38,38.26,21.26,71.09,16.59,72.84S99,710.93,84.65,672.67s-16.88-72.45-12.21-74.19S88.17,627.67,102.55,665.93Z"/><path class="cls-14" d="M72.44,598.48,46,608.39C47.2,632.9,53.3,662,64.54,691.83a303.34,303.34,0,0,0,28.18,56.88l26.39-9.92A305,305,0,0,1,90.93,681.9C79.69,652,73.59,623,72.44,598.48Z"/><path class="cls-15" d="M86.19,515.06S71.47,536.22,73,569.31s60.4,234.16,99.77,213.4Z"/><path class="cls-16" d="M119,445.62a281.38,281.38,0,0,0-42.25,39.21s1.46,168,103.48,322.85c0,0,20.59,13.78,54.81,10.93Z"/><path class="cls-17" d="M119,445.62s-1.62,1.18-4.32,3.29c15.66,168.9,115.7,369.7,115.7,369.7s1.77,0,4.62-.15Z"/><path class="cls-18" d="M119,445.62s15.8-10,28.51-12.23c10.25-1.81,31.06-6.23,47,16.8s46.06,87.37,66.82,156.27,34.17,140.66,31.86,160-12.92,38.76-31.3,46.67a69.36,69.36,0,0,1-26.86,5.44S133.68,615.19,119,445.62Z"/><path class="cls-19" d="M2.26,339.68s-8.79,62,8.28,114.78c0,0,17.05,17.57,65.65,14.47,0,0,8.8-1,8.28-28.43s-4.65-106-24.3-122.53C60.17,318,30.7,320.56,2.26,339.68Z"/><path class="cls-20" d="M256.72,597.67s-48.6-121.5-58.43-132.36-19.13-17.06-12.41,14,36.72,130.29,58.43,193.37,37.23,107.53,41.88,93.06-9.83-88.93-17.06-116.85c0,0,11.89,96.69-1,61.53S206.57,525.8,205,508.74,226.22,529.94,256.72,597.67Z"/><path class="cls-21" d="M726.75,435.65s-9,137.06-60.26,211.79l8.22-48.3s32.34-57.34,40-166.95Z"/><path class="cls-22" d="M656.26,665.93C641.88,704.19,635,737,639.67,738.77s20.1-27.84,34.49-66.1,16.88-72.45,12.22-74.19S670.65,627.67,656.26,665.93Z"/><path class="cls-23" d="M686.38,598.48l26.39,9.91c-1.16,24.51-7.26,53.57-18.49,83.44a304,304,0,0,1-28.19,56.88l-26.4-9.92a303.76,303.76,0,0,0,28.19-56.89C679.11,652,685.22,623,686.38,598.48Z"/><path class="cls-24" d="M672.62,515.06s14.72,21.16,13.19,54.25S625.41,803.47,586,782.71Z"/><path class="cls-25" d="M639.78,445.62A281.38,281.38,0,0,1,682,484.83s-1.47,168-103.48,322.85c0,0-20.6,13.78-54.81,10.93Z"/><path class="cls-26" d="M639.78,445.62s1.61,1.18,4.32,3.29c-15.66,168.9-115.7,369.7-115.7,369.7s-1.77,0-4.61-.15Z"/><path class="cls-27" d="M639.78,445.62s-15.8-10-28.51-12.23c-10.25-1.81-31.06-6.23-47,16.8s-46.06,87.37-66.83,156.27-34.18,140.66-31.86,160,12.92,38.76,31.3,46.67a69.36,69.36,0,0,0,26.86,5.44S625.13,615.19,639.78,445.62Z"/><path class="cls-28" d="M756.55,339.68s8.79,62-8.27,114.78c0,0-17.06,17.57-65.66,14.47,0,0-8.8-1-8.28-28.43S679,334.52,698.65,318C698.65,318,728.11,320.56,756.55,339.68Z"/><path class="cls-29" d="M502.09,597.67s48.6-121.5,58.43-132.36,19.12-17.06,12.41,14S536.21,609.56,514.5,672.64s-37.23,107.53-41.88,93.06,9.83-88.93,17.06-116.85c0,0-11.89,96.69,1,61.53s61.53-184.58,63.07-201.64S532.6,529.94,502.09,597.67Z"/></g></g></g></svg>